name D:\school\WTK\thesis\model\3dpredictsim\Results\Batchsim_tmt_linear\Pog_s1_tmt_bCst_d00_k250_ig24.mot
datacolumns 128
datarows 4
range 1.66051213 1.69372237
endheader
time	pelvis_tilt	pelvis_list	pelvis_rotation	pelvis_tx	pelvis_ty	pelvis_tz	hip_flexion_l	hip_adduction_l	hip_rotation_l	hip_flexion_r	hip_adduction_r	hip_rotation_r	knee_angle_l	knee_angle_r	ankle_angle_l	ankle_angle_r	subtalar_angle_l	subtalar_angle_r	tmt_angle_l	tmt_angle_r	mtp_angle_l	mtp_angle_r	lumbar_extension	lumbar_bending	lumbar_rotation	arm_flex_l	arm_add_l	arm_rot_l	arm_flex_r	arm_add_r	arm_rot_r	elbow_flex_l	elbow_flex_r	pro_sup_l	pro_sup_r	glut_med1_l/activation	glut_med2_l/activation	glut_med3_l/activation	glut_min1_l/activation	glut_min2_l/activation	glut_min3_l/activation	semimem_l/activation	semiten_l/activation	bifemlh_l/activation	bifemsh_l/activation	sar_l/activation	add_long_l/activation	add_brev_l/activation	add_mag1_l/activation	add_mag2_l/activation	add_mag3_l/activation	tfl_l/activation	pect_l/activation	grac_l/activation	glut_max1_l/activation	glut_max2_l/activation	glut_max3_l/activation	iliacus_l/activation	psoas_l/activation	quad_fem_l/activation	gem_l/activation	peri_l/activation	rect_fem_l/activation	vas_med_l/activation	vas_int_l/activation	vas_lat_l/activation	med_gas_l/activation	lat_gas_l/activation	soleus_l/activation	tib_post_l/activation	flex_dig_l/activation	flex_hal_l/activation	tib_ant_l/activation	per_brev_l/activation	per_long_l/activation	per_tert_l/activation	ext_dig_l/activation	ext_hal_l/activation	ercspn_l/activation	intobl_l/activation	extobl_l/activation	glut_med1_r/activation	glut_med2_r/activation	glut_med3_r/activation	glut_min1_r/activation	glut_min2_r/activation	glut_min3_r/activation	semimem_r/activation	semiten_r/activation	bifemlh_r/activation	bifemsh_r/activation	sar_r/activation	add_long_r/activation	add_brev_r/activation	add_mag1_r/activation	add_mag2_r/activation	add_mag3_r/activation	tfl_r/activation	pect_r/activation	grac_r/activation	glut_max1_r/activation	glut_max2_r/activation	glut_max3_r/activation	iliacus_r/activation	psoas_r/activation	quad_fem_r/activation	gem_r/activation	peri_r/activation	rect_fem_r/activation	vas_med_r/activation	vas_int_r/activation	vas_lat_r/activation	med_gas_r/activation	lat_gas_r/activation	soleus_r/activation	tib_post_r/activation	flex_dig_r/activation	flex_hal_r/activation	tib_ant_r/activation	per_brev_r/activation	per_long_r/activation	per_tert_r/activation	ext_dig_r/activation	ext_hal_r/activation	ercspn_r/activation	intobl_r/activation	extobl_r/activation	
          1.66051213	         -2.92536295	          2.22240443	         -6.26019680	          2.07564016	          0.85762681	          0.00295089	         31.87493439	          3.37187871	         -1.36460391	        -17.29410254	         -1.78860614	          9.24288035	        -15.75156999	        -10.68778029	          6.50215508	         -1.77669747	         -2.66523469	         13.35292343	          0.12901710	          3.77903973	         -0.07120486	         20.98034387	         -2.08212407	         -0.99369859	          1.88622778	        -10.25945479	        -13.64434330	          6.96887088	          6.84290155	        -13.48529827	         17.36483028	         15.79932995	         40.93410785	         86.51662706	         86.51662706	          0.05922505	          0.05922505	          0.05000000	          0.05922506	          0.05922506	          0.05922500	          0.08573910	          0.05922510	          0.18523437	          0.05922490	          0.05000003	          0.19375386	          0.33904245	          0.09178245	          0.23288742	          0.10236436	          0.05000001	          0.08784932	          0.16273652	          0.05000003	          0.05000003	          0.05767737	          0.06995416	          0.07015236	          0.58412377	          0.36433896	          0.14558023	          0.05000004	          0.14015486	          0.15900636	          0.12575973	          0.07571965	          0.07226349	          0.06937077	          0.07015216	          0.05000007	          0.05000014	          0.52401117	          0.34451205	          0.19822435	          0.27573930	          0.58725262	          0.34977380	          0.05898678	          0.08301897	          0.08309532	          0.28124875	          0.10077425	          0.05000001	          0.29078319	          0.21268774	          0.10622822	          0.05000026	          0.05000002	          0.05000002	          0.06208914	          0.09579772	          0.10250121	          0.23210252	          0.05130239	          0.05000033	          0.05000009	          0.27655354	          0.05922538	          0.05000018	          0.05000007	          0.05000005	          0.05000004	          0.30687247	          0.48818785	          0.05000000	          0.05000005	          0.05000021	          0.17906029	          0.05000012	          0.05000013	          0.13042165	          0.25636116	          0.34270139	          0.24081912	          0.21156532	          0.25504162	          0.29915136	          0.05000000	          0.07893912	          0.14649102	          0.05000000	          0.05000000	          0.05000000	          0.05082094	          0.05380520	          0.07358741	
          1.67158221	         -2.91414947	          2.35672141	         -6.48695781	          2.09268115	          0.85648492	          0.00271477	         31.15849383	          3.88458789	         -1.09303896	        -16.83177021	         -2.06804284	          8.95664659	        -16.08497362	        -13.21923043	          5.76087867	         -2.81735889	         -3.15643378	         14.45161246	          0.00887539	          3.52315447	         -0.08669310	         22.07444479	         -1.87077619	         -1.26360702	          1.97087152	        -11.32622610	        -13.63830544	          6.79681618	          6.50281815	        -13.51848608	         17.52772652	         15.70079181	         42.10676935	         86.51662706	         86.51662706	          0.05000000	          0.05000000	          0.09688081	          0.05000000	          0.05000000	          0.05000000	          0.07238413	          0.05000003	          0.15638173	          0.05000000	          0.05000023	          0.16357422	          0.35277433	          0.42217765	          0.28948792	          0.11111464	          0.05000002	          0.08309564	          0.16580007	          0.05570576	          0.10897722	          0.13917071	          0.05905790	          0.05922525	          0.69135575	          0.30758847	          0.12290424	          0.06182464	          0.23785267	          0.25469972	          0.20663528	          0.06922768	          0.06486179	          0.05946401	          0.05922506	          0.07015218	          0.07015212	          0.59119035	          0.44575223	          0.24819474	          0.31579288	          0.57215112	          0.29529203	          0.05000000	          0.07008770	          0.07015215	          0.23744064	          0.08507737	          0.05922506	          0.24548997	          0.17955889	          0.08968181	          0.05000024	          0.05000002	          0.05000005	          0.05241796	          0.08087600	          0.20781592	          0.34044138	          0.30268471	          0.08684773	          0.13468737	          0.23347677	          0.05000029	          0.05000009	          0.05922516	          0.05922517	          0.05922517	          0.25907313	          0.43612091	          0.05922507	          0.05922509	          0.05709567	          0.15116934	          0.11658633	          0.11658635	          0.11010684	          0.21642961	          0.28932124	          0.20330844	          0.17861130	          0.21531561	          0.25255469	          0.08928202	          0.06664334	          0.12367316	          0.05000000	          0.10334211	          0.05000003	          0.08491612	          0.07015221	          0.06212523	
          1.68265229	         -2.89702687	          2.49214659	         -6.67998951	          2.10993584	          0.85513506	          0.00250438	         30.18613961	          4.27846811	         -0.78598585	        -16.27471880	         -2.31974030	          8.65128769	        -16.34476765	        -15.91917312	          5.31649337	         -3.85165121	         -3.66574542	         15.43107236	         -0.09937613	          3.05287841	         -0.18988288	         22.86646892	         -1.64333528	         -1.53567631	          2.04514889	        -12.35705546	        -13.64258189	          6.72064072	          6.07935614	        -13.55614549	         17.60412634	         15.55050085	         43.26957010	         86.51662706	         86.51662706	          0.32901094	          0.34310460	          0.37006675	          0.45339638	          0.33339432	          0.26952798	          0.09744681	          0.11796436	          0.13953132	          0.08309536	          0.05000050	          0.13809543	          0.29782519	          0.35641805	          0.24439647	          0.12723648	          0.05000002	          0.07015249	          0.13997460	          0.18104940	          0.15462927	          0.11749309	          0.05000017	          0.05000017	          0.58366819	          0.25967762	          0.28321359	          0.05219466	          0.20080406	          0.21502697	          0.17444918	          0.05844458	          0.05475874	          0.05020172	          0.05000000	          0.05922508	          0.05922503	          0.63712577	          0.44535410	          0.20953523	          0.60632622	          0.66599687	          0.36262516	          0.07075576	          0.09020527	          0.05922505	          0.34523379	          0.07182547	          0.05000000	          0.37558743	          0.15159030	          0.07571272	          0.05000014	          0.05000000	          0.05000000	          0.05000000	          0.07970906	          0.17544593	          0.28741327	          0.25553767	          0.07332009	          0.11370809	          0.19710981	          0.12585478	          0.05000002	          0.05000012	          0.05000010	          0.05000010	          0.21871917	          0.39374435	          0.05000000	          0.05000003	          0.05000000	          0.12762277	          0.09842651	          0.09842652	          0.09295628	          0.18271791	          0.24425573	          0.17164053	          0.15079029	          0.18177744	          0.21321605	          0.19933200	          0.13613939	          0.15217829	          0.33316258	          0.23966574	          0.15808411	          0.09481038	          0.05922510	          0.05244842	
          1.69372237	         -2.87646337	          2.61644044	         -6.83283045	          2.12712530	          0.85362821	          0.00226550	         29.12251545	          4.63841019	         -0.48231926	        -15.59863638	         -2.53671873	          8.33662294	        -16.52368592	        -18.78671989	          5.06262806	         -4.65252549	         -4.21756799	         16.28290314	         -0.04880346	          2.25134356	         -0.18880539	         22.92877320	         -1.42757797	         -1.79579921	          2.10803940	        -13.29302387	        -13.64987673	          6.74014219	          5.62804228	        -13.60502597	         17.62902301	         15.32079851	         44.38012492	         86.51662706	         86.51662706	          0.46792908	          0.51472026	          0.54472048	          0.40334236	          0.35824033	          0.48615896	          0.08226826	          0.11561013	          0.11779753	          0.07015219	          0.05000004	          0.11658529	          0.25143508	          0.30090136	          0.22773493	          0.17386179	          0.05000001	          0.05922540	          0.11817178	          0.29444616	          0.21738453	          0.16552058	          0.05000001	          0.05000000	          0.49275435	          0.21922949	          0.28203256	          0.05000000	          0.26157992	          0.28960937	          0.22746688	          0.05000000	          0.05000000	          0.05000000	          0.05000000	          0.05000003	          0.05000001	          0.76437087	          0.37598446	          0.17689742	          0.64943204	          0.66234977	          0.50709000	          0.09645367	          0.07615464	          0.05000000	          0.29145919	          0.06063774	          0.05000009	          0.31708486	          0.12797816	          0.06391950	          0.08554745	          0.05922505	          0.05922509	          0.05000064	          0.06729338	          0.17101776	          0.25144272	          0.25625365	          0.06190033	          0.11656926	          0.16640743	          0.10625132	          0.05922512	          0.05000047	          0.05000028	          0.05000016	          0.18465084	          0.33241360	          0.05618204	          0.05000111	          0.05000016	          0.10774388	          0.08309531	          0.08309533	          0.07847715	          0.15425724	          0.20620975	          0.14490531	          0.12730276	          0.15346328	          0.18000491	          0.23936893	          0.14285173	          0.12847459	          0.28126826	          0.28242851	          0.16810002	          0.12408966	          0.05000003	          0.05000000	
